<svg xmlns="http://www.w3.org/2000/svg" viewBox="0 0 512 512">
  <g stroke="#C4873A" stroke-opacity="0.37" stroke-width="13">
    <line x1="405" y1="217" x2="131" y2="210"/>
<line x1="256" y1="441" x2="131" y2="210"/>
<line x1="405" y1="217" x2="256" y2="441"/>
<line x1="256" y1="71" x2="131" y2="210"/>
<line x1="405" y1="217" x2="256" y2="71"/>
<line x1="107" y1="295" x2="131" y2="210"/>
  </g>
  <g stroke="#C4873A" stroke-opacity="0.725" stroke-width="19">
    <line x1="405" y1="217" x2="381" y2="302"/>
<line x1="107" y1="295" x2="256" y2="441"/>
<line x1="256" y1="441" x2="381" y2="302"/>
<line x1="107" y1="295" x2="256" y2="71"/>
<line x1="256" y1="71" x2="381" y2="302"/>
<line x1="107" y1="295" x2="381" y2="302"/>
  </g>
  <g fill="#C4873A">
    <circle cx="131" cy="210" r="18" fill-opacity="0.78"/>
<circle cx="405" cy="217" r="19" fill-opacity="0.78"/>
<circle cx="256" cy="441" r="21" fill-opacity="0.78"/>
<circle cx="256" cy="71" r="26" fill-opacity="1"/>
<circle cx="107" cy="295" r="28" fill-opacity="1"/>
<circle cx="381" cy="302" r="29" fill-opacity="1"/>
  </g>
</svg>
